<?xml version="1.0" encoding="utf-8"?>
<!-- Generator: Adobe Illustrator 19.0.0, SVG Export Plug-In . SVG Version: 6.00 Build 0)  -->
<svg version="1.1" id="Layer_1" xmlns="http://www.w3.org/2000/svg" xmlns:xlink="http://www.w3.org/1999/xlink" x="0px" y="0px"
	 viewBox="296 -12 672 179" style="enable-background:new 296 -12 672 179;" xml:space="preserve">
<style type="text/css">
	.st0{fill:none;}
	.st1{fill:url(#Path_2510_1_);}
	.st2{fill:#343655;}
	.st3{fill:url(#XMLID_2_);}
</style>
<rect x="212" y="-104" class="st0" width="858" height="330"/>
<g id="Artboard_3">
	<g id="Group_8329" transform="translate(-243 -737)">
		
			<linearGradient id="Path_2510_1_" gradientUnits="userSpaceOnUse" x1="666.8789" y1="860.2028" x2="666.8789" y2="859.2028" gradientTransform="matrix(341.3198 0 0 -85.6358 -226896.4531 74407.2578)">
			<stop  offset="0" style="stop-color:#C73056"/>
			<stop  offset="1" style="stop-color:#FF2176"/>
		</linearGradient>
		<path id="Path_2510" class="st1" d="M609.6,816.9c0,1.9,0,3.8,0.1,5.6s0.2,3.4,0.3,4.5h-14.5c-0.2-0.9-0.3-1.8-0.4-2.7
			c-0.1-1.2-0.2-2.5-0.2-3.8c-1.5,2.4-3.5,4.3-6,5.6c-3,1.6-6.4,2.4-9.7,2.3c-3.8,0-7.6-0.7-11.1-2.2c-3.3-1.4-6.2-3.5-8.6-6.2
			c-2.5-2.7-4.4-5.9-5.6-9.3c-1.4-3.8-2.1-7.8-2.1-11.8c0-3.9,0.6-7.8,2-11.5c1.2-3.4,3.1-6.6,5.5-9.3c2.4-2.6,5.3-4.7,8.5-6.2
			c3.4-1.5,7.1-2.3,10.9-2.3c2.1,0,4.3,0.2,6.3,0.7c1.6,0.4,3.2,1,4.6,1.7c1.1,0.6,2.2,1.3,3.1,2.2c0.7,0.7,1.3,1.5,1.8,2.3v-32
			h14.9V816.9z M567.2,798.8c0,5,1.3,8.9,3.9,11.7c2.6,2.8,6.2,4.3,10,4.2c3.7,0.1,7.3-1.5,9.8-4.2c2.7-2.8,4-6.8,4-11.9
			c0-5-1.3-8.9-4-11.6c-2.6-2.7-6.1-4.1-9.8-4c-3.7-0.1-7.3,1.4-9.9,4.1C568.5,789.9,567.2,793.8,567.2,798.8z M621.4,827v-56.1
			h15.2V827H621.4z M619.6,752.6c-0.1-2.5,0.9-5,2.7-6.7c1.7-1.8,4.1-2.8,6.6-2.7c2.5-0.1,4.9,0.9,6.7,2.7c1.8,1.8,2.7,4.2,2.7,6.7
			c0,2.4-0.9,4.8-2.7,6.5c-1.7,1.8-4.2,2.8-6.7,2.7c-2.5,0-4.9-1-6.6-2.7C620.6,757.4,619.6,755,619.6,752.6z M656.4,808.5
			c0.2,2.2,1.1,4.3,2.7,5.9c1.7,1.7,4.2,2.6,7.5,2.6c2.5,0,4.4-0.6,5.6-1.7c1.2-1,1.8-2.4,1.8-3.9c0-1.3-0.5-2.5-1.4-3.4
			c-1.3-1.1-2.9-1.9-4.7-2.1l-7.4-1.7c-5.5-1.2-9.5-3.3-12-6.3c-2.5-2.9-3.8-6.6-3.8-10.4c0-2.5,0.5-4.9,1.6-7.1
			c1-2.2,2.5-4.2,4.4-5.8c2-1.7,4.2-3,6.6-3.9c2.7-1,5.5-1.5,8.4-1.5c3.4-0.1,6.8,0.5,10,1.7c2.5,0.9,4.7,2.4,6.7,4.2
			c1.6,1.5,2.9,3.3,3.8,5.3c0.8,1.6,1.3,3.3,1.5,5.1l-12.7,2.9c-0.2-0.9-0.4-1.7-0.7-2.6c-0.4-0.9-0.9-1.8-1.7-2.5
			c-0.8-0.8-1.8-1.4-2.8-1.8c-1.3-0.5-2.7-0.7-4-0.7c-1.8,0-3.6,0.5-5.1,1.6c-1.3,0.9-2.1,2.4-2.1,4c0,1.3,0.5,2.5,1.4,3.3
			c1.1,0.9,2.3,1.5,3.7,1.7l8,1.7c5.5,1.1,9.7,3.3,12.5,6.4c2.7,3,4.2,6.8,4.2,10.8c0,2.3-0.4,4.6-1.3,6.7c-0.9,2.2-2.3,4.3-4.1,5.9
			c-2,1.8-4.3,3.3-6.8,4.2c-3.1,1.1-6.3,1.7-9.6,1.6c-3.7,0.1-7.3-0.5-10.7-1.8c-2.6-1-5-2.5-7.1-4.4c-1.7-1.6-3.1-3.5-4-5.6
			c-0.8-1.7-1.3-3.5-1.5-5.4L656.4,808.5z M714.9,770.9h11.3v13.5h-11.3v23.5c0,2.4,0.6,4.1,1.7,5.1c1.4,1.1,3.2,1.6,5,1.4
			c0.9,0,1.8,0,2.7-0.1c0.7,0,1.3-0.1,1.9-0.3v12.5c-1,0.4-2.1,0.7-3.1,0.9c-1.8,0.3-3.6,0.5-5.4,0.5c-5.5,0-9.8-1.5-13-4.6
			c-3.2-3-4.8-7.3-4.8-12.8v-26.1h-10.1v-13.5h2.8c3,0,5.1-0.9,6.6-2.6c1.4-1.8,2.2-4,2.1-6.3v-7.9h13.7V770.9z M767.9,786
			c-1.5-0.3-3-0.5-4.6-0.5c-1.9,0-3.8,0.3-5.6,0.8c-1.7,0.5-3.3,1.4-4.6,2.6c-1.4,1.4-2.5,3-3.1,4.8c-0.9,2.4-1.3,5-1.2,7.6V827
			h-15.2v-56.1h14.7v8.3c0.8-1.7,1.9-3.2,3.2-4.5c1.2-1.1,2.7-2,4.2-2.7c1.4-0.6,2.9-1,4.4-1.3c1.3-0.2,2.7-0.3,4-0.3
			c0.6,0,1.2,0,1.8,0.1c0.6,0,1.2,0.1,1.8,0.2L767.9,786z M774.1,827v-56.1h15.2V827H774.1z M772.2,752.6c-0.1-2.5,0.9-5,2.7-6.7
			c1.7-1.8,4.1-2.8,6.6-2.7c2.5-0.1,4.9,0.9,6.7,2.7c1.8,1.8,2.7,4.2,2.7,6.7c0,2.4-0.9,4.8-2.7,6.5c-1.7,1.8-4.2,2.8-6.7,2.7
			c-2.5,0-4.9-1-6.6-2.7C773.2,757.4,772.2,755,772.2,752.6L772.2,752.6z M819.5,770.9h11.3v13.5h-11.3v23.5c0,2.4,0.6,4.1,1.7,5.1
			c1.4,1.1,3.2,1.6,5,1.4c0.9,0,1.8,0,2.7-0.1c0.7,0,1.3-0.1,1.9-0.3v12.5c-1,0.4-2.1,0.7-3.1,0.9c-1.8,0.3-3.6,0.5-5.4,0.5
			c-5.5,0-9.8-1.5-13-4.6c-3.2-3-4.8-7.3-4.8-12.8v-26.1h-10.1v-13.5h2.8c3,0,5.1-0.9,6.6-2.6c1.4-1.8,2.2-4,2.1-6.3v-7.9h13.7
			V770.9z M863.8,814.9c1.8,0,3.7-0.4,5.4-1c1.7-0.7,3.3-1.7,4.6-3c1.4-1.4,2.4-3.1,3.1-5c0.8-2.2,1.2-4.6,1.2-7
			c0-2.4-0.4-4.7-1.2-7c-0.7-1.8-1.8-3.5-3.1-5c-1.3-1.3-2.8-2.4-4.6-3c-1.7-0.7-3.5-1-5.4-1c-1.8,0-3.7,0.4-5.4,1
			c-1.7,0.7-3.3,1.7-4.6,3c-1.4,1.4-2.4,3.1-3.1,5c-0.8,2.2-1.2,4.6-1.2,7c0,2.4,0.4,4.7,1.2,7c0.7,1.8,1.8,3.5,3.1,5
			c1.3,1.3,2.8,2.4,4.6,3C860.1,814.6,861.9,814.9,863.8,814.9L863.8,814.9z M863.8,769.2c4,0,8,0.7,11.7,2.2
			c3.5,1.4,6.7,3.5,9.3,6.2c2.7,2.7,4.8,5.9,6.2,9.4c1.5,3.8,2.3,7.9,2.2,12c0,4.1-0.7,8.1-2.2,11.9c-1.4,3.5-3.5,6.7-6.2,9.4
			c-2.7,2.7-5.8,4.8-9.3,6.2c-3.7,1.5-7.7,2.3-11.7,2.2c-4,0-8-0.7-11.7-2.2c-3.5-1.4-6.7-3.5-9.3-6.2c-2.6-2.7-4.7-5.9-6.2-9.4
			c-1.5-3.8-2.3-7.8-2.2-11.9c0-4.1,0.7-8.2,2.2-12c1.4-3.5,3.5-6.7,6.2-9.4c2.7-2.7,5.9-4.7,9.3-6.2
			C855.8,769.9,859.8,769.2,863.8,769.2L863.8,769.2z"/>
		<path id="Path_6008" class="st2" d="M928.1,827v-56.1h14.5v6.8c0.8-1.4,1.8-2.6,3-3.7c1.2-1.1,2.6-1.9,4-2.6
			c1.5-0.7,3.1-1.2,4.7-1.6c1.6-0.4,3.1-0.6,4.7-0.6c3.5-0.1,7,0.7,10.1,2.4c2.9,1.6,5.1,4,6.5,7c1.9-3.1,4.5-5.6,7.8-7.2
			c3.1-1.4,6.6-2.2,10-2.1c2.6,0,5.1,0.4,7.5,1.2c2.4,0.8,4.6,2.1,6.5,3.8c2,1.9,3.5,4.1,4.6,6.7c1.2,3.1,1.8,6.3,1.7,9.6V827H999
			v-33.3c0.1-2.7-0.7-5.4-2.3-7.6c-1.6-2-4.1-3-7.6-3c-2.9-0.2-5.7,1-7.6,3.2c-1.8,2.2-2.8,5-2.7,7.8V827h-15v-33.3
			c0.1-2.7-0.7-5.4-2.4-7.6c-1.6-2-4.1-3-7.5-3c-2.9-0.2-5.8,1-7.8,3.2c-1.8,2.2-2.8,5-2.7,7.9V827H928.1z M1049.7,814.9
			c1.8,0,3.7-0.4,5.4-1c1.7-0.7,3.3-1.7,4.6-3c1.4-1.4,2.4-3.1,3.1-5c0.8-2.2,1.2-4.6,1.2-7c0-2.4-0.4-4.7-1.2-7
			c-0.7-1.8-1.8-3.5-3.1-5c-1.3-1.3-2.8-2.4-4.6-3c-1.7-0.7-3.5-1-5.4-1c-1.8,0-3.7,0.4-5.4,1c-1.7,0.7-3.3,1.7-4.6,3
			c-1.4,1.4-2.4,3.1-3.1,5c-0.8,2.2-1.2,4.6-1.2,7c0,2.4,0.4,4.7,1.2,7c0.7,1.8,1.8,3.5,3.1,5c1.3,1.3,2.8,2.4,4.6,3
			C1046.1,814.6,1047.9,814.9,1049.7,814.9z M1049.7,769.2c4,0,8,0.7,11.7,2.2c3.5,1.4,6.7,3.5,9.3,6.2c2.7,2.7,4.8,5.9,6.2,9.4
			c1.5,3.8,2.3,7.9,2.2,12c0,4.1-0.7,8.1-2.2,11.9c-1.4,3.5-3.5,6.7-6.2,9.4c-2.7,2.7-5.8,4.8-9.3,6.2c-3.7,1.5-7.7,2.3-11.7,2.2
			c-4,0-8-0.7-11.7-2.2c-3.5-1.4-6.7-3.5-9.3-6.2c-2.6-2.7-4.7-5.9-6.2-9.4c-1.5-3.8-2.3-7.8-2.2-11.9c0-4.1,0.7-8.2,2.2-12
			c1.4-3.5,3.5-6.7,6.2-9.4c2.7-2.7,5.9-4.7,9.3-6.2C1041.8,769.9,1045.7,769.2,1049.7,769.2L1049.7,769.2z M1140,816.9
			c0,1.9,0,3.8,0.1,5.6c0.1,1.9,0.2,3.4,0.3,4.5H1126c-0.2-0.9-0.3-1.8-0.4-2.7c-0.1-1.2-0.2-2.5-0.2-3.8c-1.5,2.4-3.5,4.3-6,5.6
			c-3,1.6-6.4,2.4-9.7,2.3c-3.8,0-7.6-0.7-11.1-2.2c-3.3-1.4-6.2-3.5-8.6-6.2c-2.5-2.7-4.4-5.9-5.6-9.3c-1.4-3.8-2.1-7.8-2.1-11.8
			c0-3.9,0.6-7.8,2-11.5c1.2-3.4,3.1-6.6,5.5-9.3c2.4-2.6,5.3-4.7,8.5-6.2c3.4-1.5,7.1-2.3,10.9-2.3c2.1,0,4.3,0.2,6.3,0.7
			c1.6,0.4,3.2,1,4.6,1.7c1.1,0.6,2.2,1.3,3.1,2.2c0.7,0.7,1.3,1.5,1.8,2.3v-32h14.9V816.9z M1097.6,798.8c0,5,1.3,8.9,3.9,11.7
			c2.6,2.8,6.2,4.3,10,4.2c3.7,0.1,7.3-1.5,9.8-4.2c2.7-2.8,4-6.8,4-11.9c0-5-1.3-8.9-4-11.6c-2.6-2.7-6.1-4.1-9.8-4
			c-3.7-0.1-7.3,1.4-9.9,4.1C1099,789.9,1097.6,793.8,1097.6,798.8z M1148.1,811.7c0-2.3,0.4-4.6,1.3-6.7c0.9-1.9,2.1-3.6,3.6-5.1
			c1.5-1.5,3.3-2.6,5.3-3.4c2.1-0.9,4.3-1.5,6.6-1.8l13.8-2.1c1.2-0.1,2.4-0.6,3.3-1.4c0.6-0.7,0.9-1.6,0.9-2.6c0-2-0.8-3.8-2.3-5.1
			c-1.6-1.4-3.9-2.2-7.1-2.2c-3.3,0-5.9,0.9-7.7,2.7c-1.7,1.7-2.8,4-3,6.4l-13.5-2.9c0.3-2.3,1-4.6,2.1-6.6c1.2-2.2,2.8-4.3,4.7-5.9
			c2.2-1.9,4.6-3.3,7.3-4.3c3.2-1.2,6.6-1.7,10-1.7c3.8-0.1,7.7,0.5,11.3,1.8c2.8,1,5.4,2.6,7.6,4.7c1.9,1.9,3.4,4.2,4.2,6.8
			c0.9,2.6,1.3,5.3,1.3,8.1v27.6c0,1.5,0.1,3.1,0.2,4.8s0.3,3.1,0.5,4h-13.9c-0.2-1-0.3-2.1-0.4-3.1c-0.1-1.3-0.2-2.5-0.2-3.6
			c-1.6,2.4-3.7,4.4-6.2,5.8c-3.1,1.8-6.7,2.7-10.3,2.5c-2.7,0-5.5-0.4-8-1.4c-2.3-0.9-4.3-2.1-6.1-3.8c-1.6-1.5-2.9-3.3-3.8-5.4
			C1148.6,816.1,1148.1,813.9,1148.1,811.7L1148.1,811.7z M1170.6,817.3c1.6,0,3.1-0.2,4.6-0.6c1.5-0.4,2.8-1.1,3.9-2.2
			c1.2-1.1,2.1-2.5,2.7-4c0.7-2,1.1-4.1,1-6.2v-2.5l-12.7,1.9c-1.8,0.2-3.5,1-5,2.1c-1.4,1.3-2.1,3.1-2,5c0,1.7,0.7,3.3,1.8,4.5
			C1166.6,816.7,1168.5,817.5,1170.6,817.3z"/>
		<g id="XMLID_364_" transform="translate(607.328 845.737)">
			
				<linearGradient id="XMLID_2_" gradientUnits="userSpaceOnUse" x1="58.0723" y1="13.9549" x2="58.0723" y2="12.9549" gradientTransform="matrix(100.9661 0 0 -148.856 -5600.8467 1973.2773)">
				<stop  offset="0" style="stop-color:#C73056"/>
				<stop  offset="1" style="stop-color:#FF2176"/>
			</linearGradient>
			<path id="XMLID_365_" class="st3" d="M256.3-104c-11,0-21,3.2-30.7,8.4v16.8c9.7-7.4,18.8-12,30.7-12c23.9,0,43.4,18.8,43.4,41.7
				c0,26.9-28.2,60.8-43,77.3c-8.1-8.7-19.7-24.6-29.1-37.5H212c11.7,19.4,29.1,40.5,38.8,50.8l1,1c1.3,1.3,3,2.1,4.9,2.3
				c1.9-0.1,3.6-0.9,4.9-2.3l1-1.3C277.7,24.5,313-14.4,313-49C313.3-79.1,287.7-104,256.3-104z"/>
		</g>
	</g>
</g>
</svg>
